IKResults
version=1
nRows=13
nColumns=38
inDegrees=yes

Units are S.I. units (second, meters, Newtons, ...)
If the header above contains a line with 'inDegrees', this indicates whether rotational values are in degrees (yes) or radians (no).

endheader
time	sternoclavicular_r2	sternoclavicular_r3	unrotscap_r3	unrotscap_r2	acromioclavicular_r2	acromioclavicular_r3	acromioclavicular_r1	unrothum_r1	unrothum_r3	unrothum_r2	elv_angle	shoulder_elv	shoulder1_r2	shoulder_rot	elbow_flexion	pro_sup	deviation	flexion	proximal_distal_r1	proximal_distal_r3	cmc_flexion	cmc_abduction	mp_flexion	ip_flexion	2mcp_flexion	2mcp_abduction	2pm_flexion	2md_flexion	APLpt_tx	APLpt_ty	APLpt_tz	FPLpt_tx	FPLpt_ty	FPLpt_tz	FPLpt2_tx	FPLpt2_ty	FPLpt2_tz
      7.26000000	    -12.19897429	      5.16690975	     -5.16690975	     12.19897429	     -2.47004415	     19.96202795	      8.97279418	     -8.97279418	    -19.96202795	      2.47004415	     96.87916292	     50.40887170	    -96.87916292	     56.99808826	    129.98816141	     50.74040180	     -0.05083460	     -0.56234767	     -4.07399844	    -16.11007405	      3.36700001	     17.40269910	    -27.65299999	    -34.18399999	     26.12440094	      7.65299997	     26.93900001	     34.89800000	      0.00031053	      0.00012421	      0.00062106	      0.00039748	      0.00119243	      0.00067074	      0.00004241	     -0.00007788	     -0.00009345
      7.27000000	    -12.20053476	      5.16757069	     -5.16757069	     12.20053476	     -2.47036011	     19.96458146	      8.97394196	     -8.97394196	    -19.96458146	      2.47036011	     96.77634914	     50.41531991	    -96.77634914	     57.07873936	    129.98808375	     50.50093475	     -0.04932237	     -0.56663295	     -3.94931490	    -16.23283842	      3.36700001	     16.97465138	    -27.65299999	    -34.18399999	     26.02392594	      7.65299997	     26.93900001	     34.89800000	      0.00031086	      0.00012434	      0.00062172	      0.00039790	      0.00119371	      0.00067146	      0.00004241	     -0.00007788	     -0.00009345
      7.28000000	    -12.18980466	      5.16302593	     -5.16302593	     12.18980466	     -2.46818748	     19.94702305	      8.96604958	     -8.96604958	    -19.94702305	      2.46818748	     96.82421165	     50.37098076	    -96.82421165	     57.03417482	    129.98810766	     50.90807598	     -0.05056614	     -0.56482030	     -4.05182212	    -16.18090965	      3.36700001	     17.23335167	    -27.65299999	    -34.18399999	     26.01915712	      7.65299997	     26.93900001	     34.89800000	      0.00031073	      0.00012429	      0.00062145	      0.00039773	      0.00119319	      0.00067117	      0.00004241	     -0.00007788	     -0.00009345
      7.29000000	    -12.18203094	      5.15973335	     -5.15973335	     12.18203094	     -2.46661346	     19.93430237	      8.96033172	     -8.96033172	    -19.93430237	      2.46661346	     96.72734768	     50.33885800	    -96.72734768	     57.11998300	    129.98800461	     50.60373339	     -0.04867315	     -0.56944555	     -3.89585000	    -16.31341341	      3.36700001	     16.78626522	    -27.65299999	    -34.18399999	     25.90827148	      7.65299997	     26.93900001	     34.89800000	      0.00031106	      0.00012443	      0.00062213	      0.00039816	      0.00119449	      0.00067190	      0.00004241	     -0.00007788	     -0.00009345
      7.30000000	    -12.18378830	      5.16047768	     -5.16047768	     12.18378830	     -2.46696929	     19.93717805	      8.96162432	     -8.96162432	    -19.93717805	      2.46696929	     96.86512552	     50.34611979	    -96.86512552	     57.03500352	    129.98813933	     50.93064734	     -0.05033620	     -0.56470725	     -4.03288278	    -16.17767092	      3.36700001	     17.22546441	    -27.65299999	    -34.18399999	     25.96593508	      7.65299997	     26.93900001	     34.89800000	      0.00031072	      0.00012429	      0.00062143	      0.00039772	      0.00119315	      0.00067115	      0.00004241	     -0.00007788	     -0.00009345
      7.31000000	    -12.17906263	      5.15847611	     -5.15847611	     12.17906263	     -2.46601244	     19.92944512	      8.95814842	     -8.95814842	    -19.92944512	      2.46601244	     96.76656600	     50.32659229	    -96.76656600	     57.12260666	    129.98802717	     50.65543558	     -0.04870913	     -0.56911006	     -3.89881170	    -16.30380236	      3.36700001	     16.79494641	    -27.65299999	    -34.18399999	     25.85134800	      7.65299997	     26.93900001	     34.89800000	      0.00031104	      0.00012442	      0.00062208	      0.00039813	      0.00119440	      0.00067185	      0.00004241	     -0.00007788	     -0.00009345
      7.32000000	    -12.17215952	      5.15555228	     -5.15555228	     12.17215952	     -2.46461470	     19.91814907	      8.95307093	     -8.95307093	    -19.91814907	      2.46461470	     96.81283435	     50.29806708	    -96.81283435	     57.00730395	    129.98812874	     50.84574846	     -0.05045208	     -0.56497821	     -4.04243663	    -16.18543356	      3.36700001	     17.19152547	    -27.65299999	    -34.18399999	     25.96560593	      7.65299997	     26.93900001	     34.89800000	      0.00031074	      0.00012429	      0.00062147	      0.00039774	      0.00119323	      0.00067119	      0.00004241	     -0.00007788	     -0.00009345
      7.33000000	    -12.15065990	      5.14644606	     -5.14644606	     12.15065990	     -2.46026147	     19.88296776	      8.93725717	     -8.93725717	    -19.88296776	      2.46026147	     96.92354146	     50.20922591	    -96.92354146	     57.00738667	    129.98806857	     50.99223492	     -0.05150788	     -0.56514390	     -4.12958342	    -16.19018013	      3.36700001	     17.34236719	    -27.65299999	    -34.18399999	     25.97114836	      7.65299997	     26.93900001	     34.89800000	      0.00031075	      0.00012430	      0.00062150	      0.00039776	      0.00119328	      0.00067122	      0.00004241	     -0.00007788	     -0.00009345
      7.34000000	    -12.15039589	      5.14633423	     -5.14633423	     12.15039589	     -2.46020801	     19.88253574	      8.93706298	     -8.93706298	    -19.88253574	      2.46020801	     96.81627972	     50.20813495	    -96.81627972	     57.09130567	    129.98798417	     50.73608667	     -0.04992907	     -0.56965940	     -3.99931552	    -16.31953974	      3.36700001	     16.89278861	    -27.65299999	    -34.18399999	     25.86704881	      7.65299997	     26.93900001	     34.89800000	      0.00031108	      0.00012443	      0.00062216	      0.00039818	      0.00119454	      0.00067193	      0.00004241	     -0.00007788	     -0.00009345
      7.35000000	    -12.14969328	      5.14603664	     -5.14603664	     12.14969328	     -2.46006575	     19.88138602	      8.93654619	     -8.93654619	    -19.88138602	      2.46006575	     96.87831285	     50.20523162	    -96.87831285	     56.98789515	    129.98811099	     51.05690230	     -0.05174576	     -0.56534334	     -4.14923401	    -16.19589360	      3.36700001	     17.18909892	    -27.65299999	    -34.18399999	     25.99849511	      7.65299997	     26.93900001	     34.89800000	      0.00031076	      0.00012431	      0.00062153	      0.00039778	      0.00119334	      0.00067125	      0.00004241	     -0.00007788	     -0.00009345
      7.36000000	    -12.14405090	      5.14364680	     -5.14364680	     12.14405090	     -2.45892328	     19.87215300	      8.93239601	     -8.93239601	    -19.87215300	      2.45892328	     96.77493417	     50.18191606	    -96.77493417	     57.07318631	    129.98799507	     50.79309152	     -0.05010587	     -0.56988201	     -4.01389250	    -16.32591703	      3.36700001	     16.75542208	    -27.65299999	    -34.18399999	     25.88962333	      7.65299997	     26.93900001	     34.89800000	      0.00031109	      0.00012444	      0.00062219	      0.00039820	      0.00119460	      0.00067196	      0.00004241	     -0.00007788	     -0.00009345
      7.37000000	    -12.12024955	      5.13356566	     -5.13356566	     12.12024955	     -2.45410399	     19.83320519	      8.91488924	     -8.91488924	    -19.83320519	      2.45410399	     96.93158082	     50.08356356	    -96.93158082	     57.01194764	    129.98809570	     51.25102497	     -0.05151771	     -0.56570251	     -4.13036140	    -16.20618318	      3.36700001	     17.12937359	    -27.65299999	    -34.18399999	     25.93855062	      7.65299997	     26.93900001	     34.89800000	      0.00031080	      0.00012432	      0.00062159	      0.00039782	      0.00119346	      0.00067132	      0.00004241	     -0.00007788	     -0.00009345
      7.38000000	    -12.11814897	      5.13267596	     -5.13267596	     12.11814897	     -2.45367866	     19.82976787	      8.91334418	     -8.91334418	    -19.82976787	      2.45367866	     96.81960780	     50.07488351	    -96.81960780	     57.07069296	    129.98804439	     50.96481258	     -0.05001885	     -0.56994493	     -4.00671658	    -16.32771965	      3.36700001	     16.70364159	    -27.65299999	    -34.18399999	     25.83740950	      7.65299997	     26.93900001	     34.89800000	      0.00031110	      0.00012444	      0.00062220	      0.00039821	      0.00119462	      0.00067197	      0.00004241	     -0.00007788	     -0.00009345
